OpenSim_Sub05_CSBaseline_LCS.mot
version=1
nRows=57
nColumns=11
inDegrees=no
endheader
time	Bot_Shank	2nd_Bot_Shank	2nd_Top_Shank	Top_Shank	Bot_Thigh	Med_Thigh	Top_Thigh	BNOx	BNOy	BNOZ
26.39000000	11603.38195413	11652.17884159	12065.52492760	11647.63708218	12488.62977073	12254.21052435	12063.37212517	224.13920987	-81.24080229	122.20048905
26.40000000	11600.55834799	11652.07318782	12065.68471956	11647.84754478	12488.06393325	12248.98294175	12063.48666393	223.59880571	-81.51968191	124.50604860
26.41000000	11597.94356530	11651.91267848	12065.82719672	11648.02442047	12486.03955389	12242.48181421	12063.64711206	223.05222674	-81.77829448	127.68170786
26.42000000	11595.57664949	11651.70293032	12065.93923264	11648.14145895	12482.80125888	12234.31242649	12063.81397403	222.49735529	-82.01498906	131.91180964
26.43000000	11593.49664398	11651.44956009	12066.00770093	11648.17240997	12478.59367444	12224.08006332	12063.94775430	221.93207372	-82.22811471	137.38069679
26.44000000	11591.74259218	11651.15818454	12066.01947516	11648.09102324	12473.66142681	12211.39000946	12064.00895732	221.35426436	-82.41602048	144.27271213
26.45000000	11590.34881261	11650.83467928	12065.96190576	11647.87326071	12468.24936067	12195.87523248	12063.95980435	220.76206130	-82.57714408	152.74405898
26.46000000	11589.24095054	11650.49087391	12065.83331046	11647.54596581	12462.60734491	12177.80540501	12063.80200320	220.15938840	-82.71196175	162.30373217
26.47000000	11588.23597805	11650.14455205	12065.64297429	11647.18686342	12456.99027262	12158.08690469	12063.57674824	219.55595932	-82.82298831	171.81351804
26.48000000	11587.14614230	11649.81375618	12065.40065912	11646.87589066	12451.65325537	12137.65379201	12063.32695062	218.96173946	-82.91282719	180.10706342
26.49000000	11585.78369044	11649.51652877	12065.11612684	11646.69298463	12446.85140469	12117.44012746	12063.09552151	218.38669421	-82.98408185	186.01801513
26.50000000	11583.96086963	11649.27091230	12064.79913930	11646.71808245	12442.83983213	12098.37997152	12062.92537207	217.84078897	-83.03935573	188.38002002
26.51000000	11581.48992702	11649.09494925	12064.45945838	11647.03112124	12439.87364925	12081.40738466	12062.85941347	217.33398913	-83.08125226	186.02672492
26.52000000	11578.18310978	11649.00668210	12064.10684597	11647.71203811	12438.20796758	12067.45642738	12062.94055687	216.87626008	-83.11237490	177.79177665
26.53000000	11573.86796189	11649.02154734	12063.75135808	11648.82422668	12438.06384484	12057.37318815	12063.20561934	216.47627197	-83.13514071	162.64763715
26.54000000	11568.52994606	11649.12807837	12063.40608760	11650.26029175	12439.31077994	12051.09556638	12063.62850488	216.12932328	-83.15004257	140.99984215
26.55000000	11562.24768855	11649.29893720	12063.08591896	11651.81208192	12441.61087097	12048.02567865	12064.14600212	215.82282393	-83.15643823	114.09936397
26.56000000	11555.10101975	11649.50658070	12062.80575975	11653.27014353	12444.62353541	12047.55871663	12064.69442002	215.54408188	-83.15367075	83.20810209
26.57000000	11547.16977006	11649.72346574	12062.58051757	11654.42502290	12448.00819071	12049.08987198	12065.21006749	215.28040508	-83.14108321	49.58795599
26.58000000	11538.53376985	11649.92204920	12062.42510000	11655.06726636	12451.42425436	12052.01433638	12065.62925349	215.01910151	-83.11801868	14.50082513
26.59000000	11529.27284952	11650.07478794	12062.35441464	11654.98742025	12454.53114383	12055.72730150	12065.88828694	214.74747912	-83.08382022	-20.79139100
26.60000000	11519.46683946	11650.15413884	12062.38336909	11653.97603091	12456.98827658	12059.62395900	12065.92347679	214.45284587	-83.03783091	-55.02679294
26.61000000	11509.19557006	11650.13255878	12062.52687093	11651.82364466	12458.45507008	12063.09950055	12065.67113198	214.12250972	-82.97939380	-86.94348120
26.62000000	11498.53887170	11649.98250461	12062.79982776	11648.32080784	12458.59094182	12065.54911782	12065.06756143	213.74377863	-82.90785198	-115.27955631
26.63000000	11487.57657478	11649.67643323	12063.21714717	11643.25806678	12457.05530924	12066.36800249	12064.04907409	213.30396057	-82.82254851	-138.77311881
26.64000000	11476.38850968	11649.18680149	12063.79373676	11636.42596781	12453.50758984	12064.95134621	12062.55197890	212.79036349	-82.72282645	-156.16226921
26.65000000	11465.10565653	11648.49260610	12064.53375262	11627.63927626	12447.74652748	12060.82481395	12060.53864712	212.19110811	-82.60726706	-166.33506414
26.66000000	11454.38704568	11647.64035847	12065.33035657	11616.96278506	12441.00921819	12054.86102671	12058.24050748	211.50270564	-82.46658676	-169.72764929
26.67000000	11445.20322875	11646.71640008	12066.01122978	11604.60879002	12435.38130860	12048.72723725	12056.04771816	210.72661728	-82.28686217	-167.68945982
26.68000000	11438.52878375	11645.80758717	12066.40320707	11590.79149337	12432.95941273	12044.10096885	12054.35248889	209.86436818	-82.05410996	-161.58173504
26.69000000	11435.33828867	11645.00077601	12066.33312326	11575.72509737	12435.84014459	12042.65974478	12053.54702942	208.91748350	-81.75434676	-152.76571424
26.70000000	11436.60632151	11644.38282287	12065.62781318	11559.62380428	12446.12011818	12046.08108831	12054.02354948	207.88748840	-81.37358923	-142.60263671
26.71000000	11443.30746027	11644.04058400	12064.11411166	11542.70181634	12465.89594754	12056.04252271	12056.17425881	206.77590804	-80.89785403	-132.45374174
26.72000000	11456.36103124	11644.05660885	12061.62269808	11525.17887828	12497.15536787	12074.13532542	12060.35643632	205.58466714	-80.31373448	-123.64692602
26.73000000	11475.41557137	11644.41439005	12058.07267645	11507.40221192	12539.38190239	12099.96712008	12066.12395159	204.32488027	-79.62108770	-116.74320615
26.74000000	11498.84882824	11644.99836339	12053.47157543	11489.84651619	12589.55486223	12131.16187649	12072.22726490	203.01685191	-78.83303455	-111.53671861
26.75000000	11524.98329775	11645.68865787	12047.83076820	11472.99203248	12644.54467976	12165.25731864	12077.38190572	201.68128606	-77.96327259	-107.78825731
26.76000000	11552.14147578	11646.36540247	12041.16162797	11457.31900219	12701.22178737	12199.79117052	12080.30340348	200.33888674	-77.02549939	-105.25861613
26.77000000	11578.64585823	11646.90872617	12033.47552795	11443.30766670	12756.45661741	12232.30115610	12079.70728764	199.01035797	-76.03341248	-103.70858896
26.78000000	11602.81894098	11647.19875796	12024.78384134	11431.43826744	12807.11960225	12260.32499938	12074.30908764	197.71640375	-75.00070944	-102.89896969
26.79000000	11622.98321993	11647.11562683	12015.09794132	11422.19104578	12850.08117426	12281.40042435	12062.82433293	196.47772812	-73.94108782	-102.59055221
26.80000000	11637.60067424	11646.55385732	12004.45942480	11416.00891255	12882.48591167	12293.28475537	12044.12773643	195.31303580	-72.86762213	-102.55318795
26.81000000	11646.57325493	11645.55658832	11993.22190629	11412.94939219	12904.30856904	12296.00238673	12018.73735992	194.22039185	-71.78695471	-102.65023494
26.82000000	11650.65241912	11644.25463317	11981.92307401	11412.84265179	12917.19355309	12290.91516231	11988.14075288	193.18568498	-70.70193331	-102.80021508
26.83000000	11650.60060366	11642.77993840	11971.10299529	11415.51591993	12922.80685056	12279.40221231	11953.83799524	192.19464654	-69.61535659	-102.92236325
26.84000000	11647.18024541	11641.26445052	11961.30173746	11420.79642514	12922.81444817	12262.84266694	11917.32916693	191.23300787	-68.53002326	-102.93591432
26.85000000	11641.15378123	11639.84011608	11953.05936784	11428.51139599	12918.88233265	12242.61565642	11880.11434788	190.28650032	-67.44873199	-102.76010319
26.86000000	11633.28364797	11638.63888159	11946.91595378	11438.48806103	12912.67649073	12220.10031094	11843.69361803	189.34085523	-66.37428147	-102.31416473
26.87000000	11624.33228249	11637.79269358	11943.41156259	11450.55364882	12905.86290913	12196.67576072	11809.56705731	188.38180396	-65.30947038	-101.51733382
26.88000000	11615.06212164	11637.43349857	11943.08626162	11464.53538791	12900.10757459	12173.72113597	11779.23474567	187.39507783	-64.25709742	-100.28884535
26.89000000	11606.23560227	11637.69324310	11946.48011818	11480.26050686	12897.07647382	12152.61556688	11754.19676303	186.36640821	-63.21996125	-98.54793420
26.90000000	11598.57375867	11638.68981422	11954.07304032	11497.53390406	12898.32410553	12134.67087905	11735.86005900	185.28364277	-62.20182273	-96.22661457
26.91000000	11592.17811971	11640.33072783	11965.44477479	11515.82635249	12903.73677712	12120.19182144	11724.23807748	184.16629588	-61.22083918	-93.44811713
26.92000000	11586.67331785	11642.36155566	11979.48212240	11534.35141470	12911.91661905	12108.70789345	11718.27153895	183.05825902	-60.30625042	-90.48287137
26.93000000	11581.67171807	11644.52370367	11995.05405899	11552.31603692	12921.43272828	12099.72865236	11716.87356971	182.00405069	-59.48758136	-87.60509326
26.94000000	11576.78568539	11646.55857783	12011.02956038	11568.92716536	12930.85420177	12092.76365547	11718.95729603	181.04818941	-58.79435689	-85.08899876
26.95000000	11571.62758480	11648.20758412	12026.27760241	11583.39174623	12938.75013647	12087.32246005	11723.43584423	180.23519372	-58.25610189	-83.20880381
